<svg version="1.2" xmlns="http://www.w3.org/2000/svg" viewBox="256.4365770164709 848.5650664855291 1919.5461677548224 1151.7277006528932" width="1920" height="1153">
	<style>
		.s0 { fill: #ffffff;stroke: #000000;stroke-miterlimit:10 } 
		.s1 { fill: #ff0000;stroke: #000000;stroke-miterlimit:10 } 
		.s2 { fill: #5a00ff;stroke: #000000;stroke-miterlimit:10 } 
		.s3 { fill: #231c1c;stroke: #000000;stroke-miterlimit:10 } 
		.s4 { fill: #5a860b;stroke: #000000;stroke-miterlimit:10 } 
		.s5 { fill: #00ff5b;stroke: #000000;stroke-miterlimit:10 } 
		.s6 { fill: #00ecff;stroke: #000000;stroke-miterlimit:10 } 
	</style>
	<g id="e-1">
		<path id="Shape 2" fill-rule="evenodd" class="s0" d="m2175.98 848.57v1151.72h-1919.54v-1151.72z"/>
		<path id="Shape 3" fill-rule="evenodd" class="s1" d="m367 1296c-103.41 0-187-83.59-187-187 0-103.41 83.59-187 187-187 103.41 0 187 83.59 187 187 0 103.41-83.59 187-187 187z"/>
		<path id="Shape 3 copy" fill-rule="evenodd" class="s2" d="m853 1265c-103.41 0-187-83.59-187-187 0-103.41 83.59-187 187-187 103.41 0 187 83.59 187 187 0 103.41-83.59 187-187 187z"/>
		<path id="Shape 3 copy 2" fill-rule="evenodd" class="s3" d="m1176.44 1630.99c-103.41 0-187-83.59-187-187 0-103.41 83.59-187 187-187 103.41 0 187 83.59 187 187 0 103.41-83.59 187-187 187z"/>
		<path id="Shape 3 copy 3" fill-rule="evenodd" class="s4" d="m1674 1484c-103.41 0-187-83.59-187-187 0-103.41 83.59-187 187-187 103.41 0 187 83.59 187 187 0 103.41-83.59 187-187 187z"/>
		<path id="Shape 3 copy 4" fill-rule="evenodd" class="s5" d="m2109 1876c-103.41 0-187-83.59-187-187 0-103.41 83.59-187 187-187 103.41 0 187 83.59 187 187 0 103.41-83.59 187-187 187z"/>
		<path id="Shape 3 copy 5" fill-rule="evenodd" class="s6" d="m599 1883c-103.41 0-187-83.59-187-187 0-103.41 83.59-187 187-187 103.41 0 187 83.59 187 187 0 103.41-83.59 187-187 187z"/>
	</g>
	<g id="Layer 1">
	</g>
</svg>