<?xml version="1.0" encoding="UTF-8"?>
<svg version="1.1" xmlns="http://www.w3.org/2000/svg" width="250" height="150">
<path d="M0 0 C30.69 0 61.38 0 93 0 C93 2.97 93 5.94 93 9 C62.31 8.67 31.62 8.34 0 8 C0 5.36 0 2.72 0 0 Z " fill="#000000" transform="translate(69,98)"/>
<path d="M0 0 C2.64 0 5.28 0 8 0 C10.66666667 5.33333333 13.33333333 10.66666667 16 16 C16.42152344 14.92878906 16.84304687 13.85757813 17.27734375 12.75390625 C17.83059319 11.35671698 18.38398602 9.95958449 18.9375 8.5625 C19.21529297 7.85544922 19.49308594 7.14839844 19.77929688 6.41992188 C21.88671875 1.11328125 21.88671875 1.11328125 23 0 C25.97 0 28.94 0 32 0 C32 9.24 32 18.48 32 28 C29.36 28 26.72 28 24 28 C23.505 23.05 23.505 23.05 23 18 C21.68 21.3 20.36 24.6 19 28 C16.69 28 14.38 28 12 28 C10.68 24.7 9.36 21.4 8 18 C7.67 21.3 7.34 24.6 7 28 C4.36 28 1.72 28 -1 28 C-1.02891949 23.70834738 -1.04677118 19.41671964 -1.0625 15.125 C-1.07087891 13.90167969 -1.07925781 12.67835937 -1.08789062 11.41796875 C-1.09111328 10.25136719 -1.09433594 9.08476563 -1.09765625 7.8828125 C-1.10289307 6.80402832 -1.10812988 5.72524414 -1.11352539 4.61376953 C-1 2 -1 2 0 0 Z " fill="#010101" transform="translate(7,61)"/>
<path d="M0 0 C8 0 8 0 9.734375 1.28515625 C10.06953125 1.87167969 10.4046875 2.45820312 10.75 3.0625 C11.32041016 4.00996094 11.32041016 4.00996094 11.90234375 4.9765625 C12.26457031 5.64429687 12.62679687 6.31203125 13 7 C13.39316406 7.66773437 13.78632813 8.33546875 14.19140625 9.0234375 C15.15409818 10.66705787 16.08073438 12.33170314 17 14 C17.33 9.38 17.66 4.76 18 0 C20.31 0 22.62 0 25 0 C26 1 26 1 26.11352539 3.59204102 C26.10828857 4.71795654 26.10305176 5.84387207 26.09765625 7.00390625 C26.09443359 8.21884766 26.09121094 9.43378906 26.08789062 10.68554688 C26.07951172 11.96494141 26.07113281 13.24433594 26.0625 14.5625 C26.05798828 15.84576172 26.05347656 17.12902344 26.04882812 18.45117188 C26.03699545 21.63416022 26.02051068 24.81705762 26 28 C22.93893331 28.3200875 20.05147959 28.45864583 17 28 C14.625 25.62890625 14.625 25.62890625 13 22.5625 C12.1646875 21.04849609 12.1646875 21.04849609 11.3125 19.50390625 C10.879375 18.67761719 10.44625 17.85132812 10 17 C9.67 16.67 9.34 16.34 9 16 C8.67 19.96 8.34 23.92 8 28 C5.36 28 2.72 28 0 28 C0 18.76 0 9.52 0 0 Z " fill="#010101" transform="translate(161,61)"/>
<path d="M0 0 C5.56045688 0.10759604 8.60561705 0.69295479 12.80175781 4.31689453 C16.15676427 8.97061316 16.699864 13.74863615 15.80175781 19.31689453 C13.55510977 23.81019061 11.33640785 26.21413343 6.80175781 28.31689453 C3.85199712 28.66736115 0.95426042 28.60132253 -2.01074219 28.50439453 C-2.79900391 28.49085937 -3.58726562 28.47732422 -4.39941406 28.46337891 C-6.33265388 28.42822909 -8.26553901 28.37442814 -10.19824219 28.31689453 C-10.22710557 23.83774125 -10.24499406 19.35861162 -10.26074219 14.87939453 C-10.26912109 13.6 -10.2775 12.32060547 -10.28613281 11.00244141 C-10.28935547 9.7875 -10.29257813 8.57255859 -10.29589844 7.32080078 C-10.30113525 6.19488525 -10.30637207 5.06896973 -10.31176758 3.90893555 C-10.06383787 -1.75185958 -4.57827909 0.00970431 0 0 Z M-2.19824219 7.31689453 C-2.19824219 12.26689453 -2.19824219 17.21689453 -2.19824219 22.31689453 C4.13300781 21.83147786 4.13300781 21.83147786 6.73925781 20.25439453 C8.49030407 17.06131017 8.3264524 13.86412557 7.80175781 10.31689453 C6.90418225 8.16909376 6.90418225 8.16909376 4.80175781 7.31689453 C2.49175781 7.31689453 0.18175781 7.31689453 -2.19824219 7.31689453 Z " fill="#010101" transform="translate(200.1982421875,60.68310546875)"/>
<path d="M0 0 C2.536875 -0.061875 5.07375 -0.12375 7.6875 -0.1875 C8.47729248 -0.21481201 9.26708496 -0.24212402 10.08081055 -0.27026367 C14.58130847 -0.32318393 17.51155808 0.08628223 21 3 C21.98515877 6.61224884 22.41963883 8.90893904 21.0625 12.4375 C20.5365625 13.2109375 20.5365625 13.2109375 20 14 C20.99 15.485 20.99 15.485 22 17 C22.3359375 18.9375 22.3359375 18.9375 22.375 21 C22.40335938 21.680625 22.43171875 22.36125 22.4609375 23.0625 C22 25 22 25 20.5546875 26.73828125 C16.67341331 28.65517966 13.00910801 28.3162761 8.75 28.1875 C5.8625 28.125625 2.975 28.06375 0 28 C0 18.76 0 9.52 0 0 Z M7 6 C7 7.65 7 9.3 7 11 C8.98 11 10.96 11 13 11 C13.33 9.68 13.66 8.36 14 7 C11.69 6.67 9.38 6.34 7 6 Z M7 17 C7 18.65 7 20.3 7 22 C9.31 22 11.62 22 14 22 C14.59070014 20.05396726 14.59070014 20.05396726 15 18 C13.81575674 16.58422523 13.81575674 16.58422523 10.4375 16.9375 C8.7359375 16.9684375 8.7359375 16.9684375 7 17 Z " fill="#010101" transform="translate(81,61)"/>
<path d="M0 0 C2.35125 -0.061875 4.7025 -0.12375 7.125 -0.1875 C7.85348145 -0.21481201 8.58196289 -0.24212402 9.33251953 -0.27026367 C15.19764363 -0.34423391 19.07595824 1.17996049 23.3125 5.1875 C25.87524582 9.45874304 26.50432799 13.3280315 25.59375 18.15234375 C24.4261617 21.88445635 23.47177182 23.59213638 20.43359375 26.21875 C16.08653456 28.47387968 12.91709332 28.45952081 8.125 28.25 C5.44375 28.1675 2.7625 28.085 0 28 C0 18.76 0 9.52 0 0 Z M8 7 C8 11.95 8 16.9 8 22 C14.53522754 21.71346336 14.53522754 21.71346336 16.9375 19.3125 C18.33817538 16.26397123 18.4842732 14.32073048 18 11 C16.5 8.5 16.5 8.5 14 7 C12.02 7 10.04 7 8 7 Z " fill="#010101" transform="translate(219,61)"/>
<path d="M0 0 C0.66902344 -0.020625 1.33804688 -0.04125 2.02734375 -0.0625 C6.47701162 -0.09746792 9.20041875 0.55812426 12.75 3.25 C14.85101595 5.9240203 14.74846976 7.29284685 14.625 10.75 C13.68484821 14.51060717 12.71883153 15.85578102 9.75 18.25 C11.4 21.55 13.05 24.85 14.75 28.25 C11.78 28.25 8.81 28.25 5.75 28.25 C4.1 25.28 2.45 22.31 0.75 19.25 C0.42 22.22 0.09 25.19 -0.25 28.25 C-2.89 28.25 -5.53 28.25 -8.25 28.25 C-8.27886338 23.77084672 -8.29675187 19.29171709 -8.3125 14.8125 C-8.32087891 13.53310547 -8.32925781 12.25371094 -8.33789062 10.93554688 C-8.34111328 9.72060547 -8.34433594 8.50566406 -8.34765625 7.25390625 C-8.35289307 6.12799072 -8.35812988 5.0020752 -8.36352539 3.84204102 C-8.13675288 -1.3356875 -4.19390804 0.03159253 0 0 Z M-0.25 7.25 C-0.25 8.9 -0.25 10.55 -0.25 12.25 C1.73 12.25 3.71 12.25 5.75 12.25 C6.34070014 10.30396726 6.34070014 10.30396726 6.75 8.25 C5.62465895 6.89381501 5.62465895 6.89381501 2.6875 7.1875 C1.718125 7.208125 0.74875 7.22875 -0.25 7.25 Z " fill="#010101" transform="translate(114.25,60.75)"/>
<path d="M0 0 C2.97 0 5.94 0 9 0 C10.42842911 3.66452852 11.85247676 7.33072569 13.27246094 10.99853516 C13.99441847 12.86060415 14.71985238 14.72132407 15.4453125 16.58203125 C15.89648438 17.74863281 16.34765625 18.91523437 16.8125 20.1171875 C17.23144531 21.19597168 17.65039062 22.27475586 18.08203125 23.38623047 C19 26 19 26 19 28 C16.36 28 13.72 28 11 28 C10.67 26.68 10.34 25.36 10 24 C8.37399059 24.0870005 6.74910322 24.1951781 5.125 24.3125 C4.22007812 24.37050781 3.31515625 24.42851563 2.3828125 24.48828125 C-0.36221601 24.7882039 -0.36221601 24.7882039 -2 28 C-4.64 28 -7.28 28 -10 28 C-6.7 18.76 -3.4 9.52 0 0 Z M4 10 C3.34 12.31 2.68 14.62 2 17 C3.65 17 5.3 17 7 17 C6.34 14.69 5.68 12.38 5 10 C4.67 10 4.34 10 4 10 Z " fill="#010101" transform="translate(140,61)"/>
<path d="M0 0 C2.81921746 2.67825659 3.64653416 4.6197503 4.5 8.375 C3.241875 8.41625 1.98375 8.4575 0.6875 8.5 C-0.02019531 8.52320312 -0.72789063 8.54640625 -1.45703125 8.5703125 C-3.5 8.375 -3.5 8.375 -6.5 6.375 C-10.10867549 6.53327178 -10.10867549 6.53327178 -13.5 7.375 C-14.92041821 10.21583641 -14.81452272 12.22977278 -14.5 15.375 C-12.95714369 17.91831238 -12.95714369 17.91831238 -10.5 19.375 C-7.10845705 19.21349795 -5.91703243 18.79203243 -3.5 16.375 C-0.81160615 16.10508094 1.79141936 16.28762643 4.5 16.375 C4.28977719 20.05389913 3.52023532 21.35274115 1 24.125 C-2.86619998 27.03852391 -6.71701699 27.76346563 -11.5 27.375 C-15.44959661 26.37192785 -18.32237588 24.81144261 -20.921875 21.640625 C-23.44080119 17.32739523 -24.06782329 13.4740525 -23.25 8.55859375 C-21.94643422 4.76331631 -19.55811487 1.93103631 -16.5 -0.625 C-10.85391513 -2.50702829 -5.40838697 -2.51103681 0 0 Z " fill="#010101" transform="translate(64.5,62.625)"/>
<path d="M0 0 C3.5 0.125 3.5 0.125 4.5 1.125 C4.64115161 3.79558851 4.54247107 6.44932238 4.5 9.125 C1.53 9.125 -1.44 9.125 -4.5 9.125 C-4.59765625 2.97265625 -4.59765625 2.97265625 -4.5 1.125 C-3.5 0.125 -3.5 0.125 0 0 Z " fill="#010101" transform="translate(115.5,42.875)"/>
</svg>
