<?xml version="1.0" encoding="UTF-8"?>
<svg version="1.1" xmlns="http://www.w3.org/2000/svg" width="250" height="150">
<path d="M0 0 C30.69 0 61.38 0 93 0 C93 2.64 93 5.28 93 8 C62.31 8 31.62 8 0 8 C0 5.36 0 2.72 0 0 Z " fill="#FEFEFE" transform="translate(69,98)"/>
<path d="M0 0 C2.05078125 0.03255208 4.1015625 0.06510417 6.15234375 0.09765625 C8.87205091 5.34950456 11.16329926 10.52833168 13.15234375 16.09765625 C15.74629546 13.50370454 16.45115168 10.97164424 17.71484375 7.53515625 C20.05512153 1.19487847 20.05512153 1.19487847 21.15234375 0.09765625 C24.12234375 0.09765625 27.09234375 0.09765625 30.15234375 0.09765625 C30.15234375 9.33765625 30.15234375 18.57765625 30.15234375 28.09765625 C27.51234375 28.09765625 24.87234375 28.09765625 22.15234375 28.09765625 C21.65734375 23.14765625 21.65734375 23.14765625 21.15234375 18.09765625 C19.83234375 21.39765625 18.51234375 24.69765625 17.15234375 28.09765625 C14.84234375 28.09765625 12.53234375 28.09765625 10.15234375 28.09765625 C8.83234375 24.79765625 7.51234375 21.49765625 6.15234375 18.09765625 C5.82234375 21.39765625 5.49234375 24.69765625 5.15234375 28.09765625 C2.84234375 28.09765625 0.53234375 28.09765625 -1.84765625 28.09765625 C-3.17179715 25.44937446 -2.97722667 23.43085513 -2.98046875 20.46875 C-2.98175781 19.35177734 -2.98304688 18.23480469 -2.984375 17.08398438 C-2.98050781 15.91287109 -2.97664062 14.74175781 -2.97265625 13.53515625 C-2.97652344 12.36017578 -2.98039063 11.18519531 -2.984375 9.97460938 C-2.98308594 8.85892578 -2.98179687 7.74324219 -2.98046875 6.59375 C-2.97934082 5.56435303 -2.97821289 4.53495605 -2.97705078 3.47436523 C-2.79594223 0.14777707 -2.79594223 0.14777707 0 0 Z " fill="#FDFDFD" transform="translate(8.84765625,60.90234375)"/>
<path d="M0 0 C8 0 8 0 9.734375 1.28515625 C10.06953125 1.87167969 10.4046875 2.45820312 10.75 3.0625 C11.32041016 4.00996094 11.32041016 4.00996094 11.90234375 4.9765625 C12.26457031 5.64429687 12.62679687 6.31203125 13 7 C13.39316406 7.66773437 13.78632813 8.33546875 14.19140625 9.0234375 C15.15409818 10.66705787 16.08073438 12.33170314 17 14 C17.33 9.38 17.66 4.76 18 0 C20.31 0 22.62 0 25 0 C27.64418212 22.71163575 27.64418212 22.71163575 25 28 C20.78690525 28.96550088 20.78690525 28.96550088 18 28 C14.39892069 24.12534046 11.36809539 19.73619078 9 15 C8.67 19.29 8.34 23.58 8 28 C5.36 28 2.72 28 0 28 C0 18.76 0 9.52 0 0 Z " fill="#FCFDFD" transform="translate(161,61)"/>
<path d="M0 0 C5.97159023 0.05472944 10.75851225 0.37036071 15.4375 4.3125 C18.4560688 8.36870182 18.97186261 12.1972096 18.7890625 17.1328125 C18.07670828 21.54940864 15.75841003 24.28539533 12.3125 26.96484375 C8.55546616 28.72595336 5.17896198 28.6412909 1.125 28.5 C0.01415039 28.47969727 0.01415039 28.47969727 -1.11914062 28.45898438 C-2.93391075 28.42385979 -4.74830288 28.37005972 -6.5625 28.3125 C-7.59504884 25.21485347 -7.69158904 23.05101213 -7.6953125 19.8046875 C-7.69660156 18.73605469 -7.69789063 17.66742188 -7.69921875 16.56640625 C-7.69535156 15.45136719 -7.69148437 14.33632812 -7.6875 13.1875 C-7.69136719 12.06472656 -7.69523438 10.94195312 -7.69921875 9.78515625 C-7.69792969 8.71910156 -7.69664062 7.65304688 -7.6953125 6.5546875 C-7.69418457 5.5735498 -7.69305664 4.59241211 -7.69189453 3.58154297 C-7.42505585 -1.09769988 -3.98406484 0.08027278 0 0 Z M0.4375 7.3125 C0.4375 12.2625 0.4375 17.2125 0.4375 22.3125 C2.355625 22.1578125 2.355625 22.1578125 4.3125 22 C5.03179687 21.94199219 5.75109375 21.88398437 6.4921875 21.82421875 C8.83269216 21.43856964 8.83269216 21.43856964 10.4375 18.3125 C10.98218716 14.8038658 11.0577561 11.48004089 9.375 8.3125 C6.76416681 6.77741659 6.76416681 6.77741659 0.4375 7.3125 Z " fill="#FDFDFD" transform="translate(197.5625,60.6875)"/>
<path d="M0 0 C2.35125 -0.061875 4.7025 -0.12375 7.125 -0.1875 C7.85348145 -0.21481201 8.58196289 -0.24212402 9.33251953 -0.27026367 C15.19764363 -0.34423391 19.07595824 1.17996049 23.3125 5.1875 C25.43958247 8.73263745 26.20206733 11.91202244 26 16 C24.52569482 20.65570057 22.80780618 23.90615748 19 27 C15.23508833 28.25497056 11.72793525 28.10661648 7.8125 28.0625 C5.234375 28.041875 2.65625 28.02125 0 28 C0 18.76 0 9.52 0 0 Z M8 7 C8 11.95 8 16.9 8 22 C14.53522754 21.71346336 14.53522754 21.71346336 16.9375 19.3125 C18.33817538 16.26397123 18.4842732 14.32073048 18 11 C16.5 8.5 16.5 8.5 14 7 C12.02 7 10.04 7 8 7 Z " fill="#FCFCFC" transform="translate(219,61)"/>
<path d="M0 0 C2.536875 -0.061875 5.07375 -0.12375 7.6875 -0.1875 C8.47729248 -0.21481201 9.26708496 -0.24212402 10.08081055 -0.27026367 C14.58298995 -0.3232037 17.50839315 0.08921494 21 3 C22 6.4375 22 6.4375 22 10 C20.5625 12.4375 20.5625 12.4375 19 14 C19.7425 14.5259375 19.7425 14.5259375 20.5 15.0625 C22.82091376 18.06034694 22.45113866 20.32644233 22 24 C20.55078125 26.20703125 20.55078125 26.20703125 18 28 C14.8975837 28.4865725 11.88034041 28.37619638 8.75 28.25 C5.8625 28.1675 2.975 28.085 0 28 C0 18.76 0 9.52 0 0 Z M7 6 C7 7.65 7 9.3 7 11 C8.98 11 10.96 11 13 11 C13.59070014 9.05396726 13.59070014 9.05396726 14 7 C12.87465895 5.64381501 12.87465895 5.64381501 9.9375 5.9375 C8.968125 5.958125 7.99875 5.97875 7 6 Z M7 17 C7 18.65 7 20.3 7 22 C9.31 22 11.62 22 14 22 C14.59070014 20.05396726 14.59070014 20.05396726 15 18 C13.81575674 16.58422523 13.81575674 16.58422523 10.4375 16.9375 C8.7359375 16.9684375 8.7359375 16.9684375 7 17 Z " fill="#FCFDFD" transform="translate(81,61)"/>
<path d="M0 0 C2.51625 -0.0825 5.0325 -0.165 7.625 -0.25 C8.79603271 -0.30462402 8.79603271 -0.30462402 9.99072266 -0.36035156 C15.0821201 -0.44049034 18.02220988 0.55991423 22 4 C23.23425688 7.99318403 23.42271968 10.02774472 21.75 13.875 C20 16 20 16 17 17 C18.98 20.63 20.96 24.26 23 28 C20.03 28 17.06 28 14 28 C12.35 25.03 10.7 22.06 9 19 C8.67 21.97 8.34 24.94 8 28 C5.36 28 2.72 28 0 28 C0 18.76 0 9.52 0 0 Z M8 6 C8 7.98 8 9.96 8 12 C9.98 12 11.96 12 14 12 C14.33 10.68 14.66 9.36 15 8 C12.04622502 5.63019987 12.04622502 5.63019987 8 6 Z " fill="#FDFDFD" transform="translate(106,61)"/>
<path d="M0 0 C2.97 0 5.94 0 9 0 C10.42621972 3.82613786 11.85033033 7.6530532 13.27246094 11.48071289 C13.75690221 12.78366483 14.24192694 14.0864 14.72753906 15.38891602 C15.42404826 17.25740854 16.11830971 19.12673846 16.8125 20.99609375 C17.23144531 22.12200928 17.65039062 23.2479248 18.08203125 24.40795898 C19 27 19 27 19 28 C16.36 28 13.72 28 11 28 C10.67 26.68 10.34 25.36 10 24 C6.37 24 2.74 24 -1 24 C-1.33 25.32 -1.66 26.64 -2 28 C-4.64 28 -7.28 28 -10 28 C-6.7 18.76 -3.4 9.52 0 0 Z M4 10 C2.74335022 12.90600261 2 14.79604584 2 18 C3.65 18 5.3 18 7 18 C6.55296014 13.52116304 6.55296014 13.52116304 4 10 Z " fill="#FCFCFC" transform="translate(140,61)"/>
<path d="M0 0 C2.35260818 2.06744355 3.69351491 4.00247797 5.0625 6.8125 C5.0625 7.4725 5.0625 8.1325 5.0625 8.8125 C-0.9921875 9.0078125 -0.9921875 9.0078125 -2.9375 8.8125 C-3.5975 8.1525 -4.2575 7.4925 -4.9375 6.8125 C-8.4375 6.39583333 -8.4375 6.39583333 -11.9375 6.8125 C-14.26499345 10.30374017 -14.44049316 11.70472251 -13.9375 15.8125 C-12.39464369 18.35581238 -12.39464369 18.35581238 -9.9375 19.8125 C-6.54595705 19.65099795 -5.35453243 19.22953243 -2.9375 16.8125 C-0.24910615 16.54258094 2.35391936 16.72512643 5.0625 16.8125 C4.18109706 20.69067296 3.42895569 22.49717767 0.375 25.125 C-4.67946631 27.6999168 -8.69164728 28.44351254 -14.125 26.75 C-18.21027797 24.99238041 -20.01538538 22.88738299 -21.9375 18.8125 C-23.22668603 14.40778107 -23.14619949 11.47155103 -21.75 7.0625 C-17.04394138 -1.37594994 -8.98123793 -3.63071321 0 0 Z " fill="#FCFDFD" transform="translate(63.9375,62.1875)"/>
<path d="M0 0 C2.97 0 5.94 0 9 0 C9 2.64 9 5.28 9 8 C6.03 8 3.06 8 0 8 C0 5.36 0 2.72 0 0 Z " fill="#FAFAFA" transform="translate(111,44)"/>
</svg>
